<?xml version="1.0" standalone="no"?>
<!DOCTYPE svg PUBLIC "-//W3C//DTD SVG 20010904//EN"
 "http://www.w3.org/TR/2001/REC-SVG-20010904/DTD/svg10.dtd">
<svg version="1.0" xmlns="http://www.w3.org/2000/svg"
 width="1630.000000pt" height="1051.000000pt" viewBox="0 0 1630.000000 1051.000000"
 preserveAspectRatio="xMidYMid meet">

<g transform="translate(0.000000,1051.000000) scale(0.100000,-0.100000)"
fill="#000000" stroke="none">
<path d="M2825 10058 c-16 -6 -42 -15 -57 -21 -16 -5 -42 -24 -59 -41 -37 -38
-119 -151 -119 -164 0 -6 -3 -12 -7 -14 -25 -10 -109 -255 -119 -345 -3 -26
-10 -77 -15 -113 -6 -36 -13 -128 -15 -205 -3 -77 -7 -142 -9 -144 -2 -2 -53
20 -112 49 -59 29 -121 58 -138 65 -16 7 -55 24 -86 39 -31 14 -60 26 -65 26
-5 0 -22 7 -39 16 -16 9 -106 41 -200 71 -161 52 -175 55 -270 55 -55 0 -107
-2 -115 -5 -8 -2 -31 -7 -52 -11 -20 -4 -45 -18 -55 -30 -27 -30 -66 -114 -59
-125 3 -5 -1 -28 -10 -52 -12 -32 -17 -82 -18 -179 -1 -118 3 -183 19 -340 2
-19 13 -64 25 -99 12 -35 19 -65 16 -68 -7 -8 -46 7 -46 18 0 5 -7 9 -16 9 -9
0 -28 6 -42 14 -37 20 -244 118 -317 150 -33 15 -68 31 -77 36 -25 14 -147 10
-185 -5 -49 -21 -62 -50 -69 -160 -9 -129 -10 -592 -1 -673 3 -34 22 -108 40
-165 44 -130 51 -155 53 -192 0 -16 2 -32 3 -35 2 -3 4 -16 6 -30 7 -63 37
-217 45 -235 5 -11 14 -38 19 -60 10 -41 14 -58 31 -138 5 -26 15 -57 22 -70
6 -12 13 -32 14 -43 1 -12 10 -36 19 -54 9 -17 14 -34 12 -37 -3 -2 4 -27 14
-56 10 -28 19 -60 19 -69 0 -10 5 -18 10 -18 6 0 10 -9 10 -20 0 -12 7 -34 14
-49 8 -15 16 -39 18 -52 2 -13 9 -34 16 -46 7 -12 12 -27 12 -33 0 -6 9 -30
20 -52 11 -23 20 -49 20 -58 0 -9 4 -20 8 -25 10 -11 56 -124 57 -140 1 -5 11
-32 23 -58 12 -27 22 -52 22 -57 0 -4 11 -28 25 -51 14 -24 25 -51 25 -59 0
-8 12 -37 25 -65 14 -27 25 -58 25 -67 0 -10 4 -18 10 -18 5 0 13 -12 16 -27
4 -16 17 -47 30 -70 26 -49 26 -128 0 -165 -9 -12 -16 -35 -16 -50 0 -14 -4
-38 -10 -52 -15 -41 -14 -125 3 -142 4 -4 7 -18 7 -31 0 -13 7 -38 16 -54 8
-17 17 -58 19 -92 3 -34 9 -73 14 -87 18 -47 70 -316 87 -450 15 -121 21 -171
29 -284 3 -43 8 -82 11 -87 2 -5 9 -45 14 -90 10 -84 23 -114 47 -105 8 4 41
-22 81 -62 63 -64 233 -202 249 -202 4 0 16 -8 27 -18 23 -20 255 -169 298
-191 16 -8 28 -18 28 -23 0 -4 5 -8 12 -8 6 0 46 -23 89 -50 43 -28 81 -50 85
-50 4 0 21 -10 38 -23 17 -12 49 -31 71 -42 22 -11 42 -22 45 -25 6 -6 42 -27
110 -63 30 -16 60 -33 65 -37 9 -7 46 -28 125 -72 19 -11 53 -30 75 -44 22
-13 69 -38 105 -55 36 -17 81 -38 100 -47 19 -10 37 -20 38 -24 2 -5 9 -8 15
-8 6 0 29 -9 51 -19 125 -58 154 -71 169 -71 10 0 17 -4 17 -9 0 -5 17 -15 38
-22 20 -7 46 -18 57 -24 11 -7 38 -18 60 -25 22 -7 45 -16 51 -21 8 -7 150
-58 199 -72 6 -2 20 -9 33 -15 12 -7 22 -10 22 -6 0 3 6 2 13 -3 6 -6 28 -15
47 -21 19 -6 86 -27 149 -47 62 -20 129 -38 147 -41 19 -2 82 -19 141 -38 60
-19 128 -39 153 -44 25 -5 92 -23 150 -40 58 -17 128 -36 155 -43 76 -18 125
-30 185 -44 30 -7 78 -19 105 -25 28 -7 68 -16 90 -20 96 -19 153 -31 190 -39
160 -36 193 -44 220 -46 17 -2 42 -8 56 -13 15 -6 29 -8 32 -5 3 3 23 -1 44
-8 21 -7 49 -13 63 -15 30 -2 118 -20 169 -34 43 -11 159 -38 216 -50 22 -5
76 -16 120 -25 44 -9 101 -23 126 -31 25 -8 60 -16 76 -18 17 -3 55 -11 84
-19 77 -22 147 -38 199 -47 25 -5 59 -14 75 -20 17 -6 47 -14 67 -16 21 -3 56
-11 79 -19 23 -9 44 -13 46 -11 3 2 28 -3 56 -11 29 -9 63 -17 77 -18 14 -1
50 -9 80 -18 30 -9 82 -21 115 -27 33 -6 84 -18 113 -26 30 -9 56 -13 59 -10
3 2 17 0 32 -5 14 -6 51 -15 81 -21 30 -5 64 -11 75 -13 62 -11 167 -36 190
-45 15 -6 30 -8 34 -6 4 3 23 1 42 -4 19 -5 61 -14 94 -20 33 -6 85 -18 115
-25 67 -17 125 -30 205 -45 33 -6 78 -16 100 -20 47 -11 112 -22 140 -25 11
-1 54 -10 96 -19 43 -9 94 -18 115 -20 41 -5 115 -18 199 -37 28 -6 61 -12 75
-14 14 -2 50 -8 80 -14 30 -6 109 -20 175 -31 66 -12 129 -22 140 -24 203 -36
226 -40 310 -52 22 -3 51 -8 65 -11 14 -3 57 -6 95 -8 39 -1 89 -10 112 -18
40 -15 129 -35 183 -42 14 -2 50 -8 80 -13 30 -6 75 -13 100 -16 25 -3 70 -10
100 -16 30 -6 71 -13 90 -15 19 -2 58 -7 85 -11 72 -9 108 -6 121 11 16 21 18
20 182 -29 187 -56 297 -86 319 -86 10 0 47 -9 83 -21 36 -11 76 -22 90 -24
43 -6 121 -26 245 -62 66 -20 134 -37 152 -39 18 -1 37 -5 42 -9 6 -3 23 -8
38 -10 16 -2 48 -8 73 -15 56 -14 127 -30 160 -35 129 -21 214 -36 220 -40 7
-4 26 -8 110 -20 141 -19 332 -55 350 -65 13 -7 58 -14 99 -15 111 -5 266 -19
266 -26 0 -1 18 -3 40 -4 22 -2 78 -6 125 -10 100 -8 164 -11 445 -18 169 -4
235 -9 340 -30 392 -76 941 -132 1305 -132 218 0 238 7 279 91 29 60 99 288
136 444 7 30 21 82 30 115 37 131 85 391 85 461 0 85 -8 97 -120 189 -73 60
-290 179 -435 240 -44 18 -118 50 -165 70 -140 60 -662 244 -694 245 -13 0 8
25 68 84 47 46 86 87 86 91 0 3 11 18 25 33 14 15 60 79 102 142 42 63 80 117
84 118 5 2 9 8 9 13 0 12 52 93 63 97 4 2 7 10 7 18 0 8 4 14 8 14 4 0 13 12
19 28 13 30 45 84 54 92 4 3 9 15 13 28 4 12 12 22 17 22 5 0 9 6 9 13 0 6 16
60 34 118 23 72 34 122 32 153 -2 42 1 49 30 71 18 14 36 25 41 25 4 0 23 20
41 44 69 93 36 168 -168 375 -47 49 -80 91 -88 116 -8 22 -29 63 -47 91 -18
27 -43 70 -56 93 -29 53 -34 60 -87 139 -23 35 -42 65 -42 67 0 1 -26 41 -57
88 -75 110 -125 168 -308 357 -83 85 -199 204 -258 265 -101 104 -106 111 -88
125 10 8 20 21 23 29 2 7 26 23 54 35 28 11 66 33 85 48 71 56 105 84 133 108
16 14 63 54 105 90 84 72 224 212 279 278 47 58 53 115 16 177 -14 25 -30 45
-35 45 -6 0 -19 9 -31 20 -12 11 -44 26 -72 34 -46 13 -77 18 -211 31 -22 2
-58 6 -80 10 -74 11 -264 5 -317 -11 -14 -4 -17 4 -17 66 0 39 -2 74 -5 78 -2
4 -7 86 -11 182 -3 96 -8 189 -10 205 -2 17 -7 71 -10 120 -11 158 -42 289
-97 407 -51 108 -60 118 -116 118 -12 0 -53 11 -90 24 -177 62 -646 65 -907 6
-66 -15 -159 -31 -180 -31 -2 0 -35 -9 -72 -21 -38 -11 -77 -21 -88 -24 -11
-2 -57 -14 -102 -27 -74 -22 -83 -23 -84 -8 -3 60 -57 343 -83 431 -53 186
-99 279 -203 420 -63 85 -102 119 -139 119 -10 0 -55 1 -99 2 -44 1 -99 -4
-121 -10 -42 -11 -111 -26 -169 -37 -50 -9 -213 -53 -335 -90 -192 -59 -244
-74 -265 -78 -49 -10 -248 -81 -385 -138 -112 -47 -172 -70 -175 -66 -1 2 -10
37 -19 78 -9 41 -20 84 -25 95 -5 11 -16 40 -26 65 -9 25 -23 59 -30 75 -7 17
-18 46 -25 65 -14 41 -17 48 -65 165 -61 150 -154 345 -196 410 -74 116 -106
162 -133 192 -31 35 -108 66 -143 58 -13 -3 -31 -7 -42 -9 -10 -2 -40 -11 -65
-20 -26 -9 -51 -16 -57 -16 -6 0 -25 -7 -42 -15 -35 -16 -169 -63 -203 -70
-11 -3 -51 -16 -90 -31 -38 -14 -91 -32 -119 -40 -27 -8 -58 -19 -69 -25 -10
-6 -35 -17 -55 -24 -42 -15 -272 -128 -317 -156 l-31 -19 -29 42 c-16 24 -31
45 -34 48 -3 3 -9 13 -15 22 -30 51 -177 258 -235 332 -97 123 -201 223 -318
307 -45 32 -87 59 -92 59 -6 0 -10 4 -10 9 0 17 -55 22 -119 11 -68 -12 -183
-54 -204 -74 -7 -6 -32 -22 -57 -35 -25 -13 -75 -48 -112 -78 l-67 -54 -36 32
c-20 18 -59 51 -88 72 -29 21 -67 52 -84 68 -18 16 -37 29 -42 29 -5 0 -11 3
-13 8 -1 4 -25 25 -53 47 -27 22 -52 42 -55 46 -3 3 -39 32 -80 65 -41 32 -76
62 -78 67 -2 4 -9 7 -14 7 -6 0 -34 17 -62 38 -101 77 -212 149 -281 182 -38
19 -72 38 -75 41 -13 16 -87 30 -162 31 -73 1 -92 -3 -158 -31 -41 -18 -83
-37 -92 -42 -10 -5 -23 -9 -30 -9 -6 0 -19 -6 -27 -14 -9 -7 -36 -24 -61 -37
-52 -28 -217 -147 -275 -198 -96 -87 -201 -200 -224 -244 -20 -38 -34 -34 -60
20 -30 63 -154 222 -240 309 -71 72 -168 144 -194 144 -8 0 -20 6 -26 13 -6 8
-30 19 -53 26 -24 7 -66 23 -94 36 -28 13 -79 29 -112 35 -54 11 -65 10 -87
-4 -14 -9 -25 -21 -25 -26 0 -5 -35 -34 -79 -64 -172 -121 -326 -306 -374
-448 -9 -26 -16 -23 -69 25 -69 61 -91 81 -213 181 -60 49 -112 92 -115 96
-14 16 -149 110 -159 110 -6 0 -11 5 -11 10 0 6 -4 10 -10 10 -5 0 -34 16 -64
35 -30 19 -58 35 -61 35 -4 0 -21 11 -39 25 -18 14 -36 25 -40 25 -3 0 -25 12
-47 26 -64 40 -122 71 -149 79 -14 4 -32 13 -40 20 -22 19 -71 25 -105 13z
m43 -150 c88 -89 122 -129 122 -142 0 -7 9 -21 20 -31 11 -10 20 -23 20 -29 0
-6 11 -23 25 -38 14 -15 25 -32 25 -38 0 -5 8 -18 18 -28 9 -9 23 -28 30 -42
7 -14 26 -45 42 -70 17 -25 36 -57 42 -72 7 -16 16 -28 20 -28 4 0 8 -9 8 -20
0 -10 9 -27 20 -38 10 -10 33 -44 51 -77 17 -32 37 -65 45 -72 8 -8 14 -22 15
-31 0 -9 9 -30 19 -47 10 -16 34 -59 53 -95 90 -174 130 -246 141 -260 8 -8
21 -31 31 -50 10 -19 35 -61 57 -94 42 -62 40 -76 -9 -76 -12 0 -34 -5 -50
-11 -15 -6 -39 -12 -53 -14 -46 -8 -97 -25 -130 -44 -9 -5 -36 -12 -60 -16
-25 -4 -49 -10 -55 -14 -19 -13 -126 -44 -188 -55 -49 -8 -136 -38 -215 -73
-17 -8 -51 -20 -75 -28 -23 -7 -73 -25 -112 -40 -38 -14 -89 -32 -112 -40
l-41 -13 -21 91 c-12 51 -24 103 -28 117 -3 14 -7 34 -8 45 -2 11 -8 47 -13
80 -6 34 -8 190 -6 365 5 358 11 463 33 568 6 29 10 56 9 60 -4 13 46 172 53
172 4 0 15 24 23 54 9 30 22 56 29 59 7 2 22 24 34 48 31 62 89 115 128 118 6
1 34 -23 63 -51z m3298 -112 c15 -14 32 -26 39 -26 28 0 125 -152 125 -196 0
-10 6 -25 13 -33 8 -9 20 -32 27 -51 31 -83 102 -246 130 -300 29 -54 48 -117
70 -229 11 -57 22 -106 24 -110 5 -7 16 -151 16 -206 0 -22 0 -68 0 -102 l1
-62 -48 5 c-26 3 -64 9 -83 13 -19 5 -45 9 -58 9 -13 1 -56 6 -95 11 -40 6
-117 13 -172 17 -54 3 -103 8 -107 10 -5 3 -34 7 -66 10 -64 5 -115 10 -182
18 -84 10 -275 26 -375 31 -55 3 -138 10 -185 15 -47 6 -105 12 -130 14 l-45
4 0 41 c-1 59 53 221 104 311 25 45 41 79 41 88 0 5 18 37 40 70 22 33 40 64
40 69 0 5 14 22 30 38 17 16 30 32 30 37 0 9 6 16 82 102 29 32 62 66 72 75
10 9 26 23 35 31 9 8 35 28 56 45 22 16 45 34 50 41 6 6 42 32 80 58 39 25 76
51 83 56 6 6 72 37 145 70 145 64 172 68 213 26z m-1632 -59 c11 -17 32 -57
47 -87 16 -30 32 -59 37 -65 38 -47 143 -294 172 -405 5 -19 21 -66 35 -105
33 -88 59 -168 73 -220 6 -22 16 -60 23 -85 7 -25 13 -55 15 -67 1 -13 5 -32
9 -43 5 -16 2 -20 -17 -21 -38 -2 -123 -1 -133 2 -6 2 -32 -1 -60 -4 -47 -7
-78 -10 -278 -22 -43 -2 -95 -9 -115 -15 -21 -5 -87 -12 -148 -14 -60 -3 -116
-7 -124 -10 -8 -3 -58 -8 -110 -10 -52 -3 -104 -8 -116 -11 -20 -6 -22 -1 -31
77 -6 47 -6 93 -1 106 4 13 8 42 8 65 0 23 10 62 21 87 17 36 116 320 133 380
10 39 80 173 104 201 94 110 218 239 231 239 6 0 15 9 21 20 6 11 15 20 20 20
5 0 25 11 45 24 34 23 38 24 78 10 28 -10 48 -25 61 -47z m3219 -447 c36 -39
37 -42 31 -93 -3 -28 -7 -83 -9 -120 -2 -38 -6 -85 -10 -105 -8 -44 -9 -288
-1 -301 3 -5 12 -43 20 -84 8 -41 29 -103 46 -137 17 -35 33 -72 36 -83 2 -12
20 -55 41 -96 68 -139 66 -133 40 -126 -12 4 -164 52 -337 107 -173 56 -322
102 -330 103 -57 6 -122 19 -165 32 -27 9 -61 18 -75 19 -14 2 -76 11 -137 21
-121 19 -126 23 -100 73 45 83 59 104 108 162 29 35 85 96 124 137 38 41 82
87 98 103 15 16 27 32 27 37 0 8 156 168 216 222 16 14 48 36 71 47 23 12 62
36 88 53 51 35 129 68 160 69 11 0 37 -18 58 -40z m-6390 -94 c11 -9 29 -11
50 -7 24 5 45 1 82 -17 28 -14 52 -29 53 -34 2 -4 7 -8 11 -8 5 0 44 -23 87
-52 74 -48 178 -144 211 -195 8 -12 22 -25 31 -28 10 -3 28 -22 42 -42 14 -20
51 -64 83 -97 31 -33 57 -65 57 -71 0 -7 9 -20 21 -31 12 -10 28 -32 36 -49 9
-16 29 -46 44 -66 16 -20 29 -44 29 -52 0 -9 10 -28 23 -44 13 -15 27 -35 31
-43 15 -33 83 -138 97 -150 24 -22 60 -82 53 -89 -5 -5 -55 -32 -112 -61 -57
-29 -115 -63 -129 -76 -14 -13 -29 -24 -33 -24 -17 0 -480 -478 -480 -496 0
-2 -12 -18 -27 -35 -15 -17 -33 -42 -39 -57 -12 -25 -12 -25 -13 -5 -1 12 -12
46 -25 75 -13 29 -29 72 -35 96 -7 23 -15 42 -20 42 -4 0 -13 28 -19 63 -7 34
-21 107 -32 162 -33 172 -50 269 -55 330 -3 33 -9 83 -14 110 -5 28 -12 77
-15 110 -3 33 -11 76 -17 95 -43 140 -62 293 -63 485 0 130 21 245 44 245 6 0
10 7 10 15 0 18 9 19 33 1z m8303 -301 c3 -19 3 -39 -1 -46 -10 -15 -22 -131
-29 -260 -3 -52 -10 -107 -15 -121 -5 -14 -8 -28 -5 -30 2 -3 0 -27 -5 -54 -5
-27 -12 -80 -16 -119 -3 -38 -10 -83 -15 -100 -5 -16 -11 -55 -15 -85 -3 -30
-10 -77 -15 -105 -6 -27 -12 -72 -15 -100 -2 -27 -7 -61 -11 -75 -7 -32 -14
-131 -14 -198 1 -52 1 -53 -27 -46 -16 4 -48 18 -72 31 -24 12 -50 23 -57 23
-8 0 -14 4 -14 8 0 5 -21 20 -47 33 -27 14 -68 37 -93 51 -25 14 -108 47 -185
72 -77 26 -149 51 -160 56 -11 6 -55 21 -97 35 -43 14 -86 29 -95 34 -22 12
-142 54 -163 56 -8 1 -32 10 -52 19 -21 9 -44 16 -52 16 -8 0 -18 4 -21 10 -7
11 -67 28 -111 33 -16 2 -55 15 -88 30 -32 15 -74 31 -94 35 l-35 8 31 26 c18
15 32 31 32 36 0 5 10 14 23 19 12 6 55 41 96 78 69 62 145 119 210 155 59 33
257 154 271 166 8 7 33 19 55 27 22 8 83 34 135 57 116 52 116 52 215 86 44
15 87 30 95 34 8 5 31 11 50 14 19 3 67 17 105 32 39 14 97 35 130 46 33 10
76 25 95 32 59 20 69 18 76 -19z m-4642 -335 c39 -15 264 -34 516 -45 58 -2
119 -7 135 -9 29 -5 117 -13 239 -21 32 -2 70 -6 85 -10 14 -3 64 -8 111 -11
103 -7 154 -12 200 -18 19 -3 60 -8 90 -11 30 -3 69 -10 85 -16 17 -5 50 -10
74 -11 45 -1 43 1 71 -75 11 -30 16 -33 55 -33 40 0 44 2 50 30 4 16 10 32 13
34 9 5 168 -21 182 -29 5 -3 29 -8 52 -10 24 -2 84 -13 133 -25 50 -11 108
-22 129 -25 22 -2 62 -13 90 -24 28 -11 87 -29 131 -41 44 -12 100 -30 125
-40 25 -10 86 -30 135 -44 143 -43 245 -78 251 -88 3 -4 18 -8 33 -8 30 0 115
-26 146 -46 28 -17 83 -33 130 -37 22 -2 70 -18 107 -36 36 -17 70 -31 75 -30
4 1 15 -1 23 -4 8 -3 48 -18 89 -31 40 -14 79 -30 85 -35 6 -5 31 -12 56 -16
25 -4 61 -15 80 -24 19 -10 60 -26 90 -36 30 -10 61 -22 68 -28 7 -5 15 -7 18
-4 3 3 33 -8 67 -24 34 -16 67 -29 73 -29 7 0 14 -6 17 -14 3 -8 23 -20 44
-26 21 -7 40 -16 43 -19 7 -9 60 -38 100 -56 19 -9 44 -21 55 -27 11 -6 33
-19 50 -27 16 -9 32 -19 35 -22 3 -3 13 -8 22 -12 9 -3 22 -24 28 -46 13 -49
36 -74 61 -66 21 7 48 -6 99 -46 36 -28 78 -53 169 -101 30 -15 64 -37 76 -48
12 -11 26 -20 32 -20 5 0 27 -16 48 -36 21 -20 49 -37 63 -38 14 -2 31 -10 37
-20 7 -9 19 -16 28 -16 9 0 18 -4 22 -9 3 -5 29 -12 58 -16 110 -14 227 -34
238 -41 5 -3 25 -7 45 -10 21 -2 42 -8 48 -12 18 -14 172 -72 190 -72 9 0 27
-6 39 -14 12 -8 40 -17 62 -21 22 -4 45 -11 51 -16 15 -12 192 -69 232 -75 18
-2 47 -11 63 -20 l31 -15 -27 -32 c-33 -41 -58 -95 -51 -113 3 -8 17 -14 32
-14 26 0 65 32 112 95 19 24 29 29 60 27 20 -2 41 -7 48 -13 6 -5 35 -16 64
-25 29 -9 78 -28 109 -44 51 -25 133 -50 187 -56 12 -1 31 -7 43 -13 24 -13
153 -59 196 -70 17 -4 39 -13 50 -19 35 -20 89 -40 123 -47 17 -4 32 -10 32
-15 0 -4 14 -10 31 -14 18 -3 68 -25 113 -48 45 -23 106 -54 138 -70 31 -16
62 -35 68 -43 7 -8 19 -15 26 -15 8 0 23 -5 33 -12 15 -9 17 -16 10 -30 -11
-20 4 -57 24 -59 14 -1 34 -4 110 -18 58 -10 68 -17 163 -102 12 -10 26 -19
31 -19 6 0 18 -9 27 -19 10 -11 32 -25 49 -32 18 -7 49 -28 70 -46 20 -18 42
-33 48 -33 6 0 29 -16 52 -35 22 -19 46 -35 53 -35 6 0 14 -6 17 -14 3 -7 25
-23 49 -34 37 -19 115 -72 171 -118 9 -7 20 -14 24 -14 3 0 29 -17 57 -38 58
-44 104 -70 266 -155 63 -32 130 -73 149 -89 18 -16 39 -27 46 -24 8 3 68 -52
142 -127 70 -72 182 -186 248 -252 190 -191 253 -266 368 -437 59 -88 115
-175 124 -192 9 -17 19 -33 23 -36 4 -3 15 -20 24 -38 17 -32 17 -33 -2 -23
-11 6 -22 17 -26 26 -3 8 -11 15 -17 15 -6 0 -20 10 -30 22 -11 12 -27 26 -38
32 -10 6 -36 23 -59 38 -22 15 -52 30 -66 34 -14 3 -26 10 -26 15 0 5 -6 9
-12 9 -7 0 -24 9 -38 20 -14 11 -35 20 -47 20 -12 0 -23 5 -25 11 -2 7 -28 18
-57 25 -29 8 -73 28 -99 46 -26 18 -76 43 -112 56 -179 64 -165 58 -313 133
-32 16 -63 29 -69 29 -6 0 -41 14 -77 31 -36 17 -88 40 -116 51 -27 10 -69 28
-91 39 -23 11 -46 19 -50 17 -5 -1 -40 13 -79 31 -112 53 -133 61 -197 82 -34
11 -89 34 -123 50 -34 16 -69 29 -77 29 -20 0 -186 53 -213 68 -25 13 -98 45
-145 62 -19 8 -58 26 -87 42 -28 15 -73 39 -99 53 -26 14 -64 38 -83 53 -20
15 -52 35 -71 46 -19 10 -38 24 -42 31 -4 7 -19 16 -34 19 -14 4 -53 28 -87
54 -34 27 -69 51 -77 55 -34 17 -99 60 -158 104 -24 18 -52 33 -62 33 -10 0
-22 4 -25 10 -3 5 -39 26 -80 45 -41 20 -77 40 -80 44 -2 5 -31 21 -62 36 -32
15 -67 36 -78 45 -11 10 -31 21 -45 25 -14 4 -39 18 -57 31 -17 13 -35 24 -39
24 -4 0 -31 18 -61 40 -60 46 -180 110 -205 110 -9 0 -18 4 -20 8 -1 5 -36 30
-76 57 -41 26 -76 54 -79 61 -3 8 -11 14 -17 14 -7 0 -19 11 -26 25 -7 14 -19
25 -25 25 -6 0 -24 14 -40 30 -16 17 -34 30 -39 30 -6 0 -44 23 -85 50 -76 52
-98 59 -119 38 -15 -15 -16 -54 -2 -63 17 -11 11 -24 -15 -31 -14 -3 -29 -12
-33 -19 -4 -6 -32 -29 -62 -50 -30 -21 -66 -52 -80 -68 -14 -17 -54 -61 -90
-97 -36 -37 -78 -84 -95 -104 -16 -21 -38 -48 -49 -60 -10 -11 -22 -30 -27
-41 -5 -11 -18 -33 -29 -50 -11 -16 -27 -43 -35 -60 -8 -16 -21 -39 -28 -50
-54 -87 -76 -125 -82 -146 -4 -13 -18 -40 -30 -59 -30 -49 -125 -243 -125
-257 0 -6 -5 -13 -11 -15 -5 -2 -19 -36 -29 -75 -10 -40 -24 -81 -30 -93 -6
-11 -8 -24 -5 -29 3 -5 0 -22 -6 -38 -15 -39 -22 -97 -22 -170 0 -35 -1 -63
-2 -63 -2 0 -23 8 -47 18 -24 10 -77 24 -117 31 -41 6 -80 16 -87 22 -16 13
-181 68 -188 62 -2 -3 -28 3 -56 12 -28 9 -64 18 -78 20 -15 1 -48 8 -74 16
-45 12 -49 12 -79 -10 -17 -13 -38 -25 -47 -26 -10 -2 -18 -4 -19 -4 -2 -1 -5
-1 -8 -1 -3 0 -22 -9 -42 -20 -21 -11 -45 -20 -53 -20 -9 0 -20 -4 -25 -9 -6
-4 -41 -18 -80 -30 -110 -35 -130 -41 -146 -41 -31 0 -181 -81 -237 -127 -31
-26 -79 -59 -105 -73 -26 -14 -47 -29 -47 -35 -1 -14 -119 -97 -159 -111 -37
-12 -55 -42 -40 -65 14 -22 11 -51 -11 -91 -22 -41 -24 -51 -51 -198 -27 -145
-37 -236 -43 -370 -9 -205 -24 -339 -47 -414 -5 -16 -9 -45 -9 -65 0 -21 -4
-41 -8 -46 -5 -6 -15 -44 -21 -85 -7 -41 -17 -87 -23 -101 -5 -15 -11 -42 -13
-60 -2 -19 -8 -52 -14 -74 -6 -22 -13 -89 -17 -150 -3 -60 -10 -116 -16 -122
-18 -23 17 -63 55 -63 18 0 38 -5 43 -10 6 -6 25 -12 43 -15 18 -2 38 -10 44
-17 29 -35 232 -140 294 -153 18 -4 35 -11 38 -16 4 -5 17 -9 30 -9 13 0 63
-20 112 -44 48 -24 111 -54 138 -66 28 -12 109 -50 180 -84 72 -35 160 -77
198 -95 37 -18 67 -36 67 -42 0 -5 9 -9 20 -9 10 0 36 -11 56 -25 20 -14 45
-25 55 -25 9 0 30 -10 46 -23 39 -31 112 -81 148 -101 17 -9 44 -26 60 -36 17
-11 50 -29 75 -41 25 -11 53 -24 62 -29 10 -6 25 -10 34 -10 9 0 22 -6 28 -13
11 -14 175 -87 194 -87 6 0 37 -13 70 -30 34 -16 68 -30 76 -30 8 0 17 -4 20
-9 3 -4 27 -14 53 -21 27 -7 62 -18 80 -26 17 -8 36 -14 42 -14 6 0 35 -11 64
-25 45 -20 55 -29 55 -49 0 -14 -6 -27 -13 -29 -14 -6 -73 7 -170 36 -38 11
-99 22 -135 23 -36 2 -81 6 -100 9 -19 4 -46 8 -60 10 -77 11 -533 88 -620
106 -30 6 -66 12 -80 14 -14 2 -50 8 -80 15 -30 6 -66 13 -80 15 -14 2 -52 9
-85 15 -33 6 -69 13 -80 15 -11 2 -47 9 -80 15 -33 7 -71 14 -85 15 -34 5
-125 23 -185 36 -27 6 -58 11 -68 11 -10 -1 -31 4 -45 9 -15 6 -49 15 -77 20
-27 4 -81 16 -120 25 -88 20 -163 35 -195 39 -14 1 -43 7 -65 13 -22 6 -65 15
-95 22 -30 6 -73 15 -95 20 -49 10 -120 24 -200 40 -33 6 -83 18 -111 26 -28
8 -60 14 -71 14 -11 0 -39 6 -64 14 -53 16 -145 38 -176 42 -12 1 -37 7 -56
13 -19 7 -48 13 -64 15 -17 2 -59 12 -94 21 -35 9 -98 24 -139 34 -41 10 -97
24 -125 31 -27 7 -68 16 -90 20 -22 4 -65 14 -95 22 -86 25 -152 40 -188 44
-18 2 -36 5 -41 8 -7 4 -125 32 -176 41 -42 8 -161 35 -192 44 -17 5 -33 7
-36 5 -2 -2 -23 3 -47 11 -23 8 -46 13 -50 10 -4 -3 -26 2 -48 9 -22 8 -42 12
-45 10 -3 -3 -22 -1 -44 5 -84 22 -129 32 -153 35 -14 2 -43 8 -65 14 -22 6
-67 16 -100 22 -56 11 -89 18 -220 50 -27 7 -70 16 -95 21 -25 4 -65 15 -89
23 -24 9 -47 14 -51 11 -4 -2 -47 9 -95 25 -47 16 -105 32 -128 35 -23 4 -89
22 -147 40 -58 18 -121 36 -140 40 -85 16 -516 155 -576 185 -21 11 -45 20
-54 20 -8 0 -28 9 -45 20 -16 11 -36 20 -44 20 -8 0 -32 9 -55 19 -78 37 -151
69 -173 75 -13 4 -23 12 -23 17 0 5 -7 9 -17 9 -9 0 -62 22 -117 49 -56 28
-112 54 -126 60 -14 6 -47 24 -75 40 -27 17 -68 40 -90 51 -22 11 -53 29 -70
39 -16 10 -57 33 -90 51 -33 18 -62 36 -65 40 -3 3 -21 14 -40 23 -37 19 -72
39 -80 47 -3 3 -21 13 -40 24 -76 41 -125 69 -130 76 -3 4 -20 13 -37 21 -18
8 -33 17 -33 20 0 3 -18 14 -40 25 -22 10 -40 22 -40 27 0 4 -5 7 -10 7 -6 0
-36 16 -66 35 -30 19 -59 35 -64 35 -6 0 -10 5 -10 10 0 6 -4 10 -10 10 -5 0
-66 39 -136 88 -69 48 -133 92 -142 97 -20 13 -95 79 -155 137 -35 33 -48 52
-43 64 8 21 -10 44 -35 44 -12 0 -19 7 -19 19 0 11 -5 23 -10 26 -6 4 -8 10
-5 15 3 5 2 18 -3 27 -5 10 -13 59 -16 108 -13 178 -37 379 -46 390 -6 7 -8
14 -5 17 3 2 1 29 -5 59 -10 59 -10 59 -40 204 -11 55 -22 114 -25 130 -2 17
-11 57 -19 90 -8 33 -17 84 -21 114 -3 30 -8 58 -10 62 -4 6 13 68 22 78 2 3
9 -3 16 -12 6 -8 28 -19 49 -22 30 -6 38 -4 47 13 11 21 10 26 -25 108 -7 17
-12 48 -10 70 2 21 4 56 5 76 1 37 19 52 61 53 18 0 42 48 34 68 -3 9 -20 17
-37 19 l-32 3 2 99 c1 55 7 113 12 130 4 17 9 47 10 66 1 37 25 169 43 235 34
127 45 221 38 320 -2 34 9 278 14 325 6 47 20 91 32 101 8 6 14 26 14 43 0 17
6 40 14 51 8 11 19 39 26 62 7 22 23 53 36 68 13 16 24 32 24 38 0 5 13 25 30
44 16 18 30 40 30 48 0 8 5 15 10 15 6 0 10 6 10 13 0 6 30 44 67 82 37 39
114 120 173 182 58 61 131 131 161 154 30 24 59 47 64 51 34 27 122 78 191
112 80 38 81 38 103 20 13 -11 34 -36 47 -56 27 -43 43 -47 69 -18 16 18 17
27 8 72 -9 45 -8 53 8 69 11 11 28 19 38 19 11 0 23 5 26 11 4 5 14 8 23 6 10
-2 34 5 54 15 21 10 42 18 48 18 6 0 31 9 56 20 24 12 49 18 54 15 4 -3 14 1
22 8 7 7 51 25 98 39 84 27 196 60 215 64 6 1 30 9 55 17 25 8 63 18 85 22 22
3 50 13 61 20 26 17 122 42 229 61 44 8 85 16 90 18 39 12 72 17 155 22 52 3
124 7 160 10 36 2 105 6 154 9 49 3 93 8 97 11 30 18 185 31 458 39 102 3 187
8 190 10 6 6 6 6 35 -5z m-4357 -27 c28 -16 49 -37 55 -55 5 -15 15 -28 20
-28 22 0 76 -68 99 -122 6 -16 15 -28 20 -28 6 0 17 -17 26 -37 8 -21 19 -40
24 -43 14 -9 59 -80 59 -94 0 -8 11 -24 25 -37 13 -13 25 -31 25 -40 0 -9 9
-28 20 -41 10 -14 17 -28 14 -30 -2 -3 2 -11 11 -18 8 -7 15 -18 15 -25 0 -6
11 -25 25 -41 14 -16 25 -35 25 -42 0 -7 9 -20 20 -29 11 -10 20 -23 20 -30 0
-7 8 -20 18 -30 25 -24 78 -106 87 -132 3 -12 10 -21 15 -21 5 0 12 -10 16
-22 4 -13 20 -38 35 -56 16 -18 29 -39 29 -47 0 -8 4 -15 9 -15 5 0 13 -9 16
-20 3 -11 12 -26 19 -32 7 -7 29 -38 50 -68 21 -30 44 -60 52 -66 11 -9 8 -23
-21 -82 -19 -38 -35 -73 -35 -77 0 -3 -10 -27 -22 -53 -19 -42 -22 -67 -26
-232 -5 -221 -5 -240 -3 -305 1 -27 -1 -61 -4 -75 -3 -14 -8 -47 -11 -74 -2
-27 -14 -81 -26 -120 -11 -39 -24 -108 -28 -152 -4 -45 -11 -87 -14 -93 -7
-10 -9 -24 -20 -138 -6 -55 -44 -168 -54 -158 -3 3 -7 15 -9 27 -2 12 -10 29
-18 38 -8 9 -15 21 -15 27 0 5 -6 23 -14 39 -47 97 -66 143 -66 157 0 10 -4
17 -8 17 -5 0 -14 19 -21 43 -7 23 -21 56 -31 72 -10 17 -27 58 -39 93 -12 34
-25 70 -30 80 -14 28 -34 76 -36 87 -1 13 -22 66 -34 85 -5 9 -12 31 -15 50
-8 41 -15 60 -44 120 -12 25 -22 53 -22 64 0 16 -26 107 -50 171 -4 11 -14 45
-23 75 -9 30 -23 78 -31 105 -8 28 -20 76 -25 105 -5 30 -19 98 -29 150 -11
52 -24 129 -31 170 -11 74 -28 166 -35 185 -1 6 -6 18 -9 28 -21 55 -20 46
-32 197 -6 74 -7 371 -1 495 4 92 17 155 31 155 4 0 27 -12 52 -27z m11161
-419 c2 -25 -8 -59 -32 -108 -18 -39 -53 -111 -76 -161 -23 -49 -56 -119 -72
-155 -103 -221 -108 -232 -128 -345 -14 -79 -26 -119 -52 -176 -14 -30 -29
-65 -33 -79 -4 -14 -16 -43 -27 -65 -11 -22 -26 -53 -34 -68 -8 -16 -14 -37
-14 -46 0 -10 -10 -29 -22 -42 -13 -14 -28 -37 -35 -51 -7 -15 -23 -34 -35
-42 -21 -14 -28 -14 -67 0 -24 8 -55 16 -70 18 -46 6 -173 45 -210 64 -20 10
-63 27 -96 37 -77 23 -210 69 -255 88 -61 25 -202 67 -280 82 -112 22 -190 50
-205 76 -4 5 -12 9 -20 9 -13 0 -72 35 -102 60 -7 5 -17 10 -23 10 -5 0 -10 5
-10 10 0 6 -5 10 -11 10 -13 0 -137 81 -169 111 -14 13 -46 37 -70 53 -43 29
-44 29 -20 38 14 5 27 13 30 17 3 5 39 22 80 38 41 17 95 40 120 51 25 11 77
32 115 47 97 38 103 40 168 69 45 20 63 23 83 16 22 -9 29 -6 52 20 17 19 52
39 101 56 42 15 83 33 91 39 8 6 47 22 86 34 39 12 79 28 90 36 10 8 29 15 42
15 12 0 40 9 62 20 22 11 48 20 59 20 12 0 60 13 108 29 49 16 113 34 143 41
72 16 141 39 157 51 6 6 17 9 25 8 7 -2 37 5 67 14 30 9 67 17 82 17 15 0 31
5 34 10 3 6 21 10 38 10 18 0 45 7 61 15 16 9 31 14 33 12 2 -2 27 1 56 8 28
6 81 13 117 14 l66 2 2 -37z m1657 -789 c114 -7 168 -16 200 -30 17 -7 42 -17
58 -20 46 -12 46 -47 -2 -95 -23 -23 -41 -45 -41 -50 0 -7 -56 -60 -315 -304
-27 -26 -69 -63 -92 -82 -23 -19 -96 -89 -163 -154 -67 -66 -125 -120 -129
-120 -3 0 -28 -20 -54 -44 -88 -81 -180 -161 -200 -175 -12 -8 -29 -23 -39
-33 -25 -25 -40 -23 -101 11 -81 45 -171 99 -184 111 -7 5 -20 11 -30 13 -24
4 -115 38 -129 49 -6 4 -42 17 -80 29 -38 12 -74 25 -80 30 -14 11 -153 58
-172 59 -7 0 -37 10 -65 23 -74 33 -118 49 -152 54 -50 8 -212 63 -261 89 -25
13 -57 24 -71 24 -26 0 -27 0 -7 18 11 10 53 36 94 57 41 22 96 54 122 72 27
18 50 33 53 33 11 -2 85 44 85 52 0 4 7 8 16 8 9 0 31 8 48 19 17 10 60 31 96
46 36 15 83 35 105 45 22 9 58 23 80 30 22 7 54 19 72 27 17 7 42 13 55 13 13
0 30 6 36 13 7 6 23 12 35 13 12 1 29 4 37 7 8 2 53 15 100 27 47 12 105 28
130 35 74 22 92 26 180 44 36 7 94 19 130 26 99 20 188 29 262 27 37 -1 76 2
87 6 21 8 157 6 286 -3z m-2745 -1136 c0 -6 16 -39 37 -72 34 -56 36 -66 38
-146 1 -82 -2 -110 -25 -226 -5 -27 -12 -66 -15 -85 -4 -19 -10 -44 -15 -55
-18 -46 -31 -107 -25 -126 4 -11 2 -25 -3 -32 -21 -27 -122 -232 -122 -248 0
-10 -6 -22 -14 -26 -11 -7 -96 -171 -96 -187 0 -3 -16 -26 -35 -52 -19 -25
-35 -50 -35 -55 0 -30 -179 -155 -234 -163 -6 -1 -18 -6 -26 -11 -12 -8 -127
-10 -293 -5 -16 0 -17 9 -13 103 2 57 11 121 20 146 9 24 16 56 16 70 0 15 5
32 11 38 6 6 13 26 15 45 2 18 24 73 49 121 25 49 45 93 45 99 0 6 7 16 15 22
8 6 16 21 18 34 2 13 8 27 14 30 5 4 25 36 42 72 50 100 93 180 126 235 17 28
37 63 45 78 8 16 22 33 32 38 10 5 18 15 18 20 0 6 11 20 25 31 14 11 25 25
25 32 0 14 45 59 78 75 12 6 22 16 22 21 0 14 58 71 102 100 21 14 38 29 38
33 0 5 15 7 34 6 35 -3 66 14 66 37 0 8 5 14 10 14 6 0 10 -5 10 -11z m212
-90 c21 -21 104 -79 114 -79 4 0 21 -10 38 -23 17 -13 57 -36 89 -51 31 -16
57 -32 57 -36 0 -4 12 -11 27 -15 15 -3 30 -10 33 -13 3 -4 23 -16 45 -27 22
-11 47 -28 55 -37 16 -18 39 -31 198 -115 57 -29 132 -71 167 -93 36 -22 75
-42 87 -45 13 -3 48 -24 78 -45 30 -22 72 -49 93 -60 20 -11 37 -25 37 -30 0
-5 10 -12 23 -16 12 -4 24 -9 27 -13 13 -15 89 -68 125 -86 62 -31 208 -143
226 -173 8 -15 25 -31 37 -37 27 -12 28 -21 2 -37 -11 -7 -20 -18 -20 -25 0
-7 -3 -13 -8 -13 -4 0 -13 -14 -20 -30 -8 -17 -27 -43 -43 -59 -16 -16 -29
-32 -29 -35 0 -3 -8 -15 -17 -25 -33 -36 -43 -50 -43 -60 0 -6 -6 -14 -13 -18
-7 -4 -21 -21 -31 -37 -10 -15 -47 -58 -83 -95 -36 -36 -77 -83 -91 -103 -13
-21 -28 -38 -31 -38 -4 0 -15 -17 -26 -37 -10 -21 -24 -45 -31 -53 -7 -8 -19
-37 -28 -65 -9 -27 -23 -63 -30 -80 -8 -16 -26 -59 -40 -95 -15 -36 -33 -76
-40 -90 -8 -14 -18 -41 -24 -60 -5 -19 -13 -42 -17 -51 -7 -19 48 -89 72 -89
21 0 73 -29 119 -66 23 -19 46 -34 51 -34 6 0 17 -7 24 -17 13 -15 11 -16 -16
-9 -16 4 -47 18 -68 32 -46 30 -168 83 -287 125 -47 17 -100 37 -118 45 -18 8
-56 24 -85 34 -108 38 -193 70 -210 80 -9 6 -39 17 -65 26 -45 15 -68 25 -146
59 -19 8 -39 15 -44 15 -6 0 -12 3 -14 8 -6 14 -108 57 -373 156 -38 15 -77
30 -85 35 -31 16 -138 70 -205 103 -38 20 -117 50 -174 67 -57 18 -99 36 -95
41 5 4 39 17 76 29 37 12 85 35 107 52 23 16 45 29 50 29 13 0 146 133 162
162 8 15 32 62 54 105 22 43 42 80 45 83 11 11 40 69 38 77 -1 4 6 25 15 47 9
21 17 44 17 52 0 7 4 16 10 19 13 8 57 102 65 140 9 40 36 115 51 140 6 11 17
43 23 70 7 28 17 68 23 90 27 104 37 296 19 377 -5 20 -18 49 -30 64 -11 15
-21 31 -21 35 0 10 96 -54 122 -82z m3498 -13 c33 -6 95 -15 150 -20 78 -8
105 -17 136 -44 34 -31 57 -92 40 -109 -6 -5 -36 -39 -66 -74 -65 -75 -68 -78
-150 -149 -35 -30 -68 -60 -74 -65 -9 -9 -172 -145 -231 -192 -10 -9 -43 -25
-73 -36 -50 -18 -54 -18 -66 -2 -19 26 -68 16 -84 -17 -10 -22 -19 -27 -40
-25 -50 6 -332 152 -386 201 -16 14 -30 26 -33 26 -9 0 -150 99 -162 114 -8 9
-38 28 -67 42 -28 13 -58 31 -64 40 -13 15 -97 74 -106 74 -3 0 -19 13 -37 30
-18 16 -38 30 -44 30 -7 0 -13 5 -13 10 0 6 -5 10 -11 10 -24 0 -129 81 -129
100 0 4 116 6 258 7 141 0 289 3 327 7 39 4 96 9 127 11 32 3 75 7 95 9 104
13 189 19 295 20 64 0 119 4 123 8 8 7 243 3 285 -6z m-1779 -1047 c11 -6 29
-12 40 -14 11 -2 52 -20 92 -39 40 -20 76 -36 79 -36 16 0 199 -117 243 -156
13 -11 52 -40 86 -65 34 -24 73 -54 87 -66 14 -13 29 -23 35 -23 12 0 177
-170 177 -182 0 -5 19 -37 43 -72 66 -97 72 -115 53 -178 -16 -56 -89 -148
-118 -148 -7 0 -26 -7 -43 -16 -39 -20 -115 -40 -233 -60 -54 -8 -116 -22
-140 -30 -23 -8 -59 -14 -78 -14 -35 0 -210 -42 -243 -59 -9 -4 -32 -7 -51 -5
-19 1 -57 -4 -85 -12 -27 -7 -59 -13 -70 -13 -19 1 -45 -2 -170 -16 -27 -3
-65 -7 -83 -9 -36 -4 -135 23 -154 42 -7 7 -18 12 -25 12 -7 0 -13 4 -13 10 0
5 -12 16 -27 24 -16 8 -39 24 -53 36 -14 12 -38 27 -53 32 -26 10 -28 14 -22
45 3 19 17 55 31 80 13 25 24 54 24 63 0 10 7 23 15 30 9 7 14 19 11 26 -3 7
-1 16 3 19 5 2 12 17 16 32 3 15 11 30 16 33 4 3 10 15 12 25 6 31 19 58 39
79 10 11 18 28 18 38 0 9 12 30 28 47 15 16 38 44 52 62 23 31 38 47 72 75 25
21 98 109 144 174 26 35 58 75 71 90 13 14 34 41 46 60 22 35 58 69 86 82 22
9 20 9 42 -3z m499 -169 c14 -11 34 -20 45 -20 11 0 32 -6 47 -14 14 -8 43
-19 65 -26 21 -7 43 -16 48 -20 11 -8 58 -21 92 -26 13 -1 36 -12 53 -24 16
-11 53 -29 82 -39 29 -10 73 -30 98 -43 25 -14 63 -31 85 -38 62 -20 157 -59
310 -130 59 -27 103 -45 165 -66 30 -10 61 -25 68 -31 7 -7 20 -13 28 -13 8 0
24 -9 36 -20 11 -10 35 -22 52 -26 17 -3 47 -14 66 -25 19 -10 51 -25 70 -33
19 -9 60 -30 90 -47 30 -17 68 -38 83 -46 16 -9 31 -21 34 -29 3 -8 11 -14 18
-14 8 0 22 -11 33 -25 11 -14 23 -25 26 -25 3 0 33 -27 67 -60 33 -33 79 -73
102 -89 52 -36 184 -175 233 -247 42 -61 39 -76 -21 -133 -29 -28 -59 -51 -66
-51 -7 0 -20 -7 -30 -16 -10 -9 -56 -29 -104 -45 -82 -27 -95 -28 -223 -25
-76 2 -272 6 -437 9 -165 4 -329 9 -365 12 -36 3 -96 7 -135 9 -38 3 -82 9
-98 15 -15 6 -59 13 -97 17 -39 3 -85 10 -103 15 -17 5 -76 19 -131 29 -54 11
-103 23 -108 26 -6 4 -31 8 -57 10 -77 5 -130 12 -141 19 -5 3 -40 8 -77 11
-38 2 -79 7 -93 10 -14 3 -43 8 -65 10 -76 8 -180 24 -305 48 -41 8 -77 13
-81 10 -4 -2 -19 0 -33 5 -14 6 -42 12 -63 15 -85 12 -104 15 -111 20 -5 3
-28 6 -53 7 -24 1 -64 11 -89 23 -38 17 -42 21 -22 24 13 2 37 -1 54 -7 38
-14 117 -14 189 -1 30 5 86 12 124 15 39 3 86 10 105 15 19 5 51 9 70 8 19 0
55 7 80 15 55 19 210 54 265 61 37 5 141 26 225 46 142 33 181 45 239 75 72
36 156 117 147 141 -3 8 -1 14 3 14 15 0 34 99 28 142 -7 55 -91 195 -168 282
-57 65 -108 107 -188 157 -14 9 -43 31 -63 50 -20 19 -59 48 -87 64 -28 17
-51 33 -51 38 0 12 14 8 40 -13z m-3960 -73 c8 -2 22 -6 30 -9 32 -11 111 -28
131 -28 21 0 70 -23 100 -48 9 -7 50 -17 90 -21 74 -9 153 -33 219 -67 30 -16
97 -31 165 -38 11 -1 29 -6 40 -12 11 -6 38 -17 60 -24 22 -7 51 -18 65 -25
55 -28 100 -44 136 -51 22 -3 55 -15 74 -24 19 -10 58 -28 85 -41 28 -12 64
-33 80 -45 17 -12 50 -27 75 -34 25 -7 61 -20 80 -30 19 -10 60 -26 90 -36 30
-9 60 -21 66 -25 6 -5 38 -18 70 -29 67 -23 127 -51 132 -62 2 -5 9 -8 15 -8
7 0 29 -9 50 -20 20 -11 42 -20 48 -20 6 0 45 -17 87 -37 42 -21 82 -38 87
-38 14 -1 66 -23 97 -40 14 -8 40 -17 57 -19 17 -2 57 -17 89 -34 33 -16 86
-37 118 -47 33 -9 68 -23 80 -30 11 -7 36 -18 55 -23 61 -19 103 -37 142 -59
21 -13 42 -23 46 -23 4 0 16 -9 26 -20 10 -11 23 -20 29 -20 7 0 18 -9 26 -20
8 -11 20 -20 27 -20 7 0 13 -5 13 -11 0 -8 18 -10 58 -5 49 5 92 1 197 -19 38
-7 340 -55 375 -60 19 -2 94 -13 165 -24 72 -11 150 -22 175 -25 25 -3 70 -10
100 -15 30 -6 78 -13 105 -16 28 -3 82 -12 120 -20 39 -9 79 -17 90 -20 27 -5
106 -22 130 -28 11 -3 56 -8 100 -12 44 -4 83 -9 87 -11 9 -6 53 -13 123 -19
28 -3 61 -7 75 -10 14 -3 133 -7 265 -11 132 -3 294 -7 360 -10 255 -10 350
-9 388 3 20 7 38 12 40 12 10 -2 66 16 85 27 12 8 22 13 23 12 7 -26 1 -56
-31 -153 -21 -66 -51 -135 -69 -160 -17 -24 -31 -47 -31 -51 0 -4 -10 -21 -23
-38 -12 -17 -29 -43 -36 -58 -8 -15 -22 -37 -33 -47 -10 -11 -18 -23 -18 -27
0 -4 -16 -29 -35 -55 -19 -27 -35 -54 -35 -59 0 -6 -4 -10 -10 -10 -5 0 -10
-6 -10 -14 0 -8 -4 -16 -8 -18 -5 -1 -23 -25 -42 -53 -52 -76 -58 -83 -167
-193 l-101 -103 -44 45 c-24 24 -56 48 -70 51 -15 4 -32 13 -39 21 -6 8 -18
14 -26 14 -7 0 -25 7 -38 16 -13 9 -29 13 -35 9 -5 -3 -10 -1 -10 4 0 6 -8 11
-18 11 -37 0 -312 150 -312 170 0 4 -39 41 -87 80 -49 40 -93 80 -100 87 -17
21 -78 52 -163 84 -42 15 -97 38 -123 52 -26 14 -64 31 -85 38 -20 6 -59 22
-87 34 -27 12 -68 28 -90 35 -22 7 -44 16 -50 20 -5 4 -26 11 -45 15 -19 4
-40 11 -45 16 -6 4 -22 10 -35 13 -57 13 -180 59 -180 67 0 5 -7 9 -15 9 -9 0
-26 7 -39 15 -13 9 -38 17 -55 20 -18 2 -38 8 -44 13 -7 6 -59 25 -117 43 -58
18 -108 37 -112 43 -4 6 -17 11 -30 12 -13 1 -40 9 -60 18 -21 9 -46 16 -57
16 -11 0 -77 18 -146 40 -69 22 -135 40 -146 40 -11 0 -48 12 -82 27 -34 14
-91 34 -127 44 -125 35 -255 67 -315 79 -33 6 -85 18 -115 27 -30 9 -70 18
-89 20 -18 3 -59 14 -89 24 -30 10 -65 19 -77 19 -13 0 -42 7 -66 16 -24 8
-84 22 -134 30 -49 8 -99 16 -110 18 -30 5 -303 55 -360 66 -27 5 -95 15 -150
21 -55 7 -118 18 -140 26 -22 8 -65 17 -95 19 -30 3 -68 9 -85 14 -16 5 -50
11 -75 14 -25 3 -67 12 -95 20 -27 8 -74 17 -103 20 -30 3 -110 24 -180 46
-118 39 -142 45 -217 55 -16 2 -97 25 -180 51 -82 25 -166 49 -185 52 -19 2
-44 11 -56 18 -11 8 -23 12 -25 9 -3 -2 -27 3 -54 11 -28 8 -72 17 -100 20
-27 3 -55 10 -61 15 -6 5 -30 11 -54 14 -23 3 -50 10 -60 15 -9 5 -37 10 -61
11 -24 2 -71 11 -104 21 -33 10 -76 18 -95 19 -31 0 -33 2 -16 12 10 7 36 26
58 42 23 17 58 41 79 55 94 62 195 131 206 140 7 5 18 10 26 10 7 0 17 4 23 9
5 5 36 16 69 25 33 9 67 18 75 20 8 2 27 9 43 15 15 6 27 9 27 6 0 -7 102 31
146 54 66 35 154 46 214 28z m-805 -529 c74 -15 163 -35 259 -57 21 -5 44 -7
51 -5 7 3 41 -4 76 -16 35 -11 94 -27 130 -35 37 -7 97 -25 133 -40 36 -15 79
-28 94 -30 15 -2 41 -9 57 -15 17 -6 50 -13 74 -16 48 -4 49 -5 221 -57 122
-38 220 -60 227 -53 3 2 24 -2 46 -11 23 -8 62 -17 86 -19 25 -3 65 -10 90
-15 25 -6 59 -13 74 -15 16 -2 32 -6 37 -9 12 -8 39 -132 41 -195 1 -30 6 -68
10 -85 4 -16 10 -64 13 -105 3 -41 10 -131 15 -200 13 -155 23 -374 22 -460 0
-36 -2 -211 -4 -390 -3 -179 -1 -361 4 -405 4 -44 10 -114 13 -155 3 -41 13
-113 21 -160 9 -47 18 -107 21 -135 3 -27 10 -66 15 -85 5 -19 9 -38 9 -42 0
-8 -20 -5 -45 9 -11 6 -67 25 -125 43 -58 18 -114 39 -125 46 -11 8 -26 14
-33 14 -8 0 -36 11 -64 25 -27 14 -56 25 -64 25 -14 0 -125 51 -134 61 -3 4
-27 16 -55 28 -27 12 -63 29 -80 38 -16 9 -43 24 -60 33 -67 36 -131 76 -146
91 -9 9 -57 37 -105 61 -49 25 -129 67 -179 93 -100 54 -132 70 -220 110 -60
27 -169 78 -255 119 -25 11 -47 23 -50 26 -17 18 -165 70 -198 70 -11 0 -23 4
-27 9 -3 5 -29 17 -58 27 -28 9 -54 20 -57 23 -10 12 -97 66 -160 99 -36 18
-79 47 -97 64 -32 30 -32 31 -27 117 2 47 5 100 7 116 13 104 20 146 34 190 9
28 17 64 19 80 1 17 14 83 28 149 14 65 28 142 31 170 3 28 9 83 15 121 5 39
10 79 9 90 -1 46 10 196 20 278 6 49 9 93 6 98 -4 5 -1 9 4 9 6 0 11 16 11 36
0 43 19 122 36 149 6 11 17 38 24 60 7 22 18 43 24 47 17 11 175 3 261 -14z
m1885 -433 c25 -3 65 -10 90 -15 25 -6 61 -12 80 -15 19 -2 76 -11 125 -19 50
-8 149 -24 220 -35 72 -12 159 -30 195 -40 36 -11 88 -22 115 -26 56 -7 191
-42 217 -56 10 -5 29 -9 42 -9 14 0 37 -5 52 -10 15 -6 43 -13 64 -15 20 -3
56 -12 80 -20 23 -8 51 -15 61 -15 11 0 27 -4 37 -9 9 -5 46 -17 82 -26 36 -9
75 -23 87 -31 12 -8 33 -14 46 -14 12 0 28 -5 33 -10 6 -6 24 -12 41 -14 17
-3 83 -20 146 -40 63 -20 123 -36 134 -36 22 0 143 -39 159 -51 6 -5 55 -23
110 -40 54 -17 105 -35 114 -39 30 -16 88 -40 97 -40 4 -1 26 -9 48 -20 22
-11 46 -19 53 -20 7 0 32 -9 55 -21 23 -12 55 -23 71 -25 16 -2 39 -10 50 -17
12 -8 32 -17 46 -20 52 -12 167 -55 229 -85 34 -18 69 -32 77 -32 14 0 55 -20
64 -31 3 -3 23 -12 45 -19 22 -7 42 -16 45 -20 3 -4 28 -15 56 -24 47 -15 68
-30 145 -100 15 -13 32 -25 37 -27 6 -2 42 -31 79 -65 37 -33 95 -76 128 -94
103 -57 228 -120 265 -131 67 -22 159 -69 190 -98 29 -26 32 -35 37 -107 5
-66 3 -82 -11 -93 -10 -8 -16 -29 -16 -51 0 -21 -7 -51 -15 -67 -36 -71 -65
-144 -81 -208 -9 -38 -24 -86 -33 -105 -8 -19 -16 -53 -17 -75 -4 -77 -12
-121 -32 -175 -28 -79 -53 -168 -57 -202 -2 -16 -16 -63 -30 -105 -14 -41 -25
-81 -25 -88 0 -6 -13 -32 -30 -56 -16 -25 -30 -57 -30 -74 0 -17 -9 -48 -20
-70 -11 -21 -24 -52 -30 -69 -6 -17 -21 -44 -34 -60 l-24 -29 -198 -1 c-191
-1 -467 10 -509 20 -11 2 -47 6 -80 9 -33 3 -94 9 -135 14 -41 6 -80 10 -87
11 -6 0 -12 8 -12 18 0 44 -12 194 -21 262 -6 41 -12 95 -15 120 -7 53 -22
158 -31 215 -3 22 -10 47 -15 56 -4 9 -6 19 -3 22 3 2 -2 22 -10 42 -9 21 -16
48 -16 61 0 13 -4 33 -9 46 -5 13 -17 59 -26 103 -9 44 -21 94 -27 110 -5 17
-14 57 -18 90 -5 33 -16 105 -25 160 -35 212 -45 345 -50 646 -1 86 -5 161 -9
167 -3 6 -8 37 -11 69 -12 150 -17 189 -22 208 -4 11 -7 25 -7 30 -2 22 -22
44 -48 50 -39 10 -50 -17 -37 -91 6 -33 13 -79 15 -104 3 -25 9 -56 14 -70 18
-50 25 -159 31 -503 1 -71 6 -152 11 -180 4 -29 15 -106 23 -172 9 -66 17
-129 19 -140 2 -11 11 -61 20 -112 9 -51 28 -136 42 -190 34 -128 62 -256 79
-368 8 -49 16 -103 19 -120 14 -69 36 -285 36 -344 0 -61 -1 -63 -22 -57 -13
4 -43 9 -68 12 -40 5 -110 15 -195 28 -16 3 -52 8 -80 11 -27 4 -79 13 -115
21 -36 8 -76 17 -90 19 -95 14 -348 72 -439 101 -40 13 -77 21 -81 19 -4 -3
-40 6 -80 20 -39 13 -88 27 -108 29 -21 3 -68 15 -107 26 -38 12 -88 25 -110
30 -22 5 -92 23 -155 39 -63 17 -135 36 -160 42 -25 6 -53 15 -62 20 -10 5
-28 9 -41 9 -13 0 -28 5 -34 11 -6 6 -28 15 -49 20 -112 28 -153 39 -199 49
-27 7 -55 16 -61 21 -6 5 -26 11 -45 13 -53 7 -114 33 -111 46 5 22 -18 41
-38 30 -47 -25 -52 -14 -89 165 -48 233 -71 476 -70 730 3 572 -4 1046 -16
1064 -3 6 -8 36 -10 68 -18 211 -31 330 -41 377 l-6 29 43 -6 c24 -3 64 -9 89
-12z m4375 -1589 c28 -8 109 -36 180 -61 72 -26 177 -64 235 -85 58 -20 143
-54 190 -74 47 -21 117 -50 156 -66 113 -47 370 -184 422 -226 89 -73 92 -78
92 -138 0 -58 -46 -304 -82 -436 -11 -41 -31 -118 -44 -170 -56 -215 -115
-393 -141 -420 -44 -48 -984 19 -1403 100 -25 5 -86 17 -137 26 l-92 17 24 36
c12 20 31 61 40 91 10 30 21 57 25 60 4 3 15 30 25 60 18 56 40 112 56 142 5
10 9 27 9 38 0 21 18 93 71 280 17 58 34 132 39 165 4 33 13 73 19 88 6 15 10
31 9 35 -1 4 4 21 11 37 7 17 16 51 20 77 4 26 13 53 18 60 6 7 16 31 23 53 7
22 19 49 26 60 22 36 63 181 66 236 l3 55 45 -13 c25 -7 68 -19 95 -27z
m-4162 -962 c48 -15 87 -31 87 -36 0 -5 -5 -6 -10 -3 -14 9 -179 37 -207 36
-25 -1 -31 14 -10 22 25 11 54 7 140 -19z"/>
</g>
</svg>
